<svg width="96" height="96" viewBox="0 0 96 96" fill="none" xmlns="http://www.w3.org/2000/svg">
<path d="M48.0001 96C74.5096 96 95.9998 74.5098 95.9998 48C95.9998 21.4903 74.5096 0 48.0001 0C21.4903 0 0 21.4903 0 48C0 74.5098 21.4903 96 48.0001 96Z" fill="#070A0E"/>
<path d="M48 0.75C74.0954 0.75 95.25 21.9046 95.25 48C95.25 74.0956 74.0953 95.25 48 95.25C21.9045 95.25 0.750018 74.0956 0.75 48C0.75 21.9046 21.9045 0.750036 48 0.75Z" stroke="white" stroke-opacity="0.09" stroke-width="1.5"/>
<path fill-rule="evenodd" clip-rule="evenodd" d="M48.9213 75.0909C34.0722 67.6926 26.6379 57.5263 26.6188 44.5917C26.614 42.1085 26.614 38.0384 26.6188 32.3803L48.9213 24.3167V75.0909Z" fill="#00D395"/>
<path fill-rule="evenodd" clip-rule="evenodd" d="M48.9213 75.0909C34.0722 67.6926 26.6379 57.5263 26.6188 44.5917C26.614 42.1085 26.614 38.0384 26.6188 32.3803L48.9213 24.3167V75.0909Z" fill="url(#paint0_linear_4756_669)" fill-opacity="0.4"/>
<path fill-rule="evenodd" clip-rule="evenodd" d="M49.0137 59.4972V49.4311L67.3472 31.0063L71.1158 32.3803L71.118 37.2832L49.0137 59.4972ZM49.0137 68.4717L71.0702 46.3085C70.4229 58.4292 63.0726 68.024 49.0137 75.0909V68.4717ZM49.0137 40.4566V24.3167L60.7962 28.6168L49.0137 40.4566Z" fill="#EEF7FC" fill-opacity="0.64"/>
<defs>
<linearGradient id="paint0_linear_4756_669" x1="41.9493" y1="31.222" x2="35.5689" y2="66.6884" gradientUnits="userSpaceOnUse">
<stop/>
<stop offset="0.834177" stop-opacity="0"/>
</linearGradient>
</defs>
</svg>
