<svg width="256" height="257" viewBox="0 0 256 257" fill="none" xmlns="http://www.w3.org/2000/svg">
<g clip-path="url(#clip0_7657_299)">
<mask id="mask0_7657_299" style="mask-type:luminance" maskUnits="userSpaceOnUse" x="0" y="0" width="256" height="257">
<path d="M256 0.5H0V256.5H256V0.5Z" fill="white"/>
</mask>
<g mask="url(#mask0_7657_299)">
<g filter="url(#filter0_d_7657_299)">
<path d="M140.441 254.06C209.786 247.19 260.431 185.405 253.561 116.06C246.69 46.7148 184.905 -3.93075 115.56 2.93984C46.2152 9.81042 -4.43029 71.5954 2.44029 140.94C9.31087 210.285 71.0958 260.931 140.441 254.06Z" fill="#EDF0F2"/>
</g>
<path d="M208.104 225.988C188.823 241.83 165.277 251.599 140.443 254.06C107.143 257.359 73.8951 247.295 48.0151 226.081C22.1351 204.867 5.74234 174.241 2.44299 140.94C-0.0174633 116.107 4.9413 91.1016 16.6922 69.0865C28.443 47.0713 46.4583 29.0351 68.4598 17.2587C90.4612 5.48216 115.461 0.494349 140.297 2.92592C165.134 5.3575 188.691 15.0993 207.991 30.9193L182.54 61.9677C169.381 51.1813 153.319 44.5392 136.385 42.8813C119.452 41.2234 102.407 44.6242 87.4052 52.6536C72.4042 60.683 60.1211 72.9805 52.1091 87.9908C44.0972 103.001 40.7162 120.05 42.3938 136.982C44.6433 159.687 55.8202 180.568 73.4657 195.032C91.1112 209.496 113.78 216.359 136.485 214.109C153.417 212.431 169.471 205.771 182.617 194.969L208.104 225.988Z" fill="url(#paint0_linear_7657_299)"/>
<path d="M128 239.5C189.304 239.5 239 189.804 239 128.5C239 67.1964 189.304 17.5 128 17.5C66.6964 17.5 17 67.1964 17 128.5C17 189.804 66.6964 239.5 128 239.5Z" fill="white"/>
</g>
<path d="M84.3636 122.578C83.9957 121.299 83.4789 120.169 82.8132 119.188C82.1475 118.19 81.3329 117.349 80.3693 116.665C79.4233 115.965 78.3371 115.43 77.1108 115.062C75.902 114.695 74.5618 114.511 73.0902 114.511C70.3397 114.511 67.9221 115.194 65.8374 116.56C63.7701 117.927 62.1584 119.915 61.0021 122.526C59.8459 125.118 59.2678 128.289 59.2678 132.038C59.2678 135.787 59.8371 138.976 60.9759 141.604C62.1146 144.232 63.7263 146.237 65.8111 147.621C67.8958 148.988 70.3572 149.671 73.1953 149.671C75.7706 149.671 77.9692 149.216 79.7912 148.305C81.6307 147.376 83.0322 146.071 83.9957 144.389C84.9768 142.707 85.4673 140.719 85.4673 138.424L87.7798 138.766H73.9048V130.199H96.4254V136.979C96.4254 141.709 95.4268 145.773 93.4297 149.172C91.4325 152.553 88.6821 155.163 85.1783 157.003C81.6745 158.825 77.6626 159.736 73.1428 159.736C68.0973 159.736 63.665 158.623 59.8459 156.398C56.0268 154.156 53.0485 150.976 50.9112 146.859C48.7914 142.725 47.7315 137.82 47.7315 132.143C47.7315 127.781 48.3622 123.892 49.6236 120.476C50.9025 117.042 52.6894 114.134 54.9844 111.751C57.2794 109.369 59.951 107.556 62.9993 106.312C66.0476 105.068 69.3499 104.446 72.9062 104.446C75.9545 104.446 78.7926 104.893 81.4205 105.786C84.0483 106.662 86.3783 107.906 88.4105 109.518C90.4602 111.129 92.1333 113.048 93.4297 115.273C94.7261 117.48 95.5582 119.915 95.9261 122.578H84.3636ZM154.428 132.091C154.428 137.96 153.316 142.953 151.091 147.07C148.884 151.187 145.87 154.331 142.051 156.504C138.25 158.658 133.975 159.736 129.227 159.736C124.445 159.736 120.153 158.65 116.351 156.477C112.549 154.305 109.545 151.16 107.338 147.043C105.13 142.926 104.026 137.942 104.026 132.091C104.026 126.222 105.13 121.229 107.338 117.112C109.545 112.995 112.549 109.859 116.351 107.705C120.153 105.532 124.445 104.446 129.227 104.446C133.975 104.446 138.25 105.532 142.051 107.705C145.87 109.859 148.884 112.995 151.091 117.112C153.316 121.229 154.428 126.222 154.428 132.091ZM142.892 132.091C142.892 128.289 142.323 125.083 141.184 122.473C140.063 119.863 138.477 117.883 136.428 116.534C134.378 115.185 131.978 114.511 129.227 114.511C126.477 114.511 124.077 115.185 122.027 116.534C119.977 117.883 118.383 119.863 117.244 122.473C116.123 125.083 115.563 128.289 115.563 132.091C115.563 135.893 116.123 139.098 117.244 141.709C118.383 144.319 119.977 146.299 122.027 147.648C124.077 148.997 126.477 149.671 129.227 149.671C131.978 149.671 134.378 148.997 136.428 147.648C138.477 146.299 140.063 144.319 141.184 141.709C142.323 139.098 142.892 135.893 142.892 132.091ZM169.545 105.182L182.553 146.071H183.052L196.086 105.182H208.7L190.147 159H175.484L156.905 105.182H169.545Z" fill="url(#paint1_linear_7657_299)"/>
</g>
<defs>
<filter id="filter0_d_7657_299" x="-44.1875" y="-39.6843" width="344.375" height="344.369" filterUnits="userSpaceOnUse" color-interpolation-filters="sRGB">
<feFlood flood-opacity="0" result="BackgroundImageFix"/>
<feColorMatrix in="SourceAlpha" type="matrix" values="0 0 0 0 0 0 0 0 0 0 0 0 0 0 0 0 0 0 127 0" result="hardAlpha"/>
<feOffset dy="4"/>
<feGaussianBlur stdDeviation="23"/>
<feColorMatrix type="matrix" values="0 0 0 0 0 0 0 0 0 0 0 0 0 0 0 0 0 0 0.08 0"/>
<feBlend mode="normal" in2="BackgroundImageFix" result="effect1_dropShadow_7657_299"/>
<feBlend mode="normal" in="SourceGraphic" in2="effect1_dropShadow_7657_299" result="shape"/>
</filter>
<linearGradient id="paint0_linear_7657_299" x1="96.4591" y1="15.4684" x2="136.025" y2="234.827" gradientUnits="userSpaceOnUse">
<stop stop-color="#27D3A2"/>
<stop offset="1" stop-color="#9388FD"/>
</linearGradient>
<linearGradient id="paint1_linear_7657_299" x1="144" y1="74.8166" x2="144" y2="182.03" gradientUnits="userSpaceOnUse">
<stop stop-color="#283947"/>
<stop offset="1" stop-color="#657786"/>
</linearGradient>
<clipPath id="clip0_7657_299">
<rect width="256" height="257" fill="white"/>
</clipPath>
</defs>
</svg>
